<?xml version="1.0" standalone="no"?>
<!DOCTYPE svg PUBLIC "-//W3C//DTD SVG 20010904//EN"
 "http://www.w3.org/TR/2001/REC-SVG-20010904/DTD/svg10.dtd">
<svg version="1.0" xmlns="http://www.w3.org/2000/svg"
 width="1051.000000pt" height="1051.000000pt" viewBox="0 0 1051.000000 1051.000000"
 preserveAspectRatio="xMidYMid meet">
<metadata>
Created by potrace 1.14, written by Peter Selinger 2001-2017
</metadata>
<g transform="translate(0.000000,1051.000000) scale(0.100000,-0.100000)"
fill="#000000" stroke="none">
<path d="M5018 10405 c-2 -2 -52 -6 -113 -10 -60 -4 -123 -9 -140 -11 -16 -2
-50 -6 -75 -9 -110 -13 -211 -27 -285 -40 -44 -8 -98 -18 -120 -21 -22 -3 -43
-8 -46 -10 -3 -2 -21 -6 -40 -9 -103 -18 -349 -85 -539 -147 -829 -271 -1644
-805 -2214 -1453 -38 -44 -75 -85 -80 -91 -6 -6 -27 -30 -46 -54 -19 -24 -47
-58 -61 -75 -49 -57 -196 -260 -276 -380 -131 -197 -305 -508 -382 -685 -13
-30 -34 -77 -47 -105 -113 -251 -251 -675 -298 -916 -2 -13 -11 -53 -19 -89
-9 -36 -18 -83 -21 -105 -3 -22 -8 -51 -10 -65 -16 -83 -26 -151 -31 -195 -2
-27 -7 -61 -10 -75 -2 -14 -7 -54 -10 -90 -2 -36 -8 -101 -12 -145 -9 -110 -9
-618 1 -740 11 -143 23 -257 32 -305 2 -14 6 -45 9 -70 3 -25 8 -56 11 -70 2
-14 7 -38 10 -55 118 -693 382 -1361 772 -1954 67 -102 305 -426 336 -456 6
-6 34 -38 61 -70 362 -425 844 -824 1345 -1112 265 -152 658 -331 870 -397 30
-10 64 -21 75 -26 49 -23 477 -138 570 -154 87 -15 143 -25 165 -30 28 -6 71
-12 175 -26 39 -5 86 -11 105 -14 37 -6 90 -11 235 -23 118 -10 614 -9 735 1
136 11 150 12 211 20 75 9 116 15 174 22 28 3 79 12 115 19 36 7 85 16 110 20
25 3 92 17 150 31 58 13 114 26 125 28 11 2 54 14 95 26 41 12 91 26 110 31
335 94 786 288 1102 474 9 6 36 20 59 33 109 60 401 257 519 351 225 179 315
259 489 432 195 194 410 442 521 604 19 28 38 52 41 55 28 22 285 435 346 555
17 33 47 91 67 128 19 38 51 103 70 145 18 42 45 102 59 132 94 205 221 594
287 880 27 116 24 103 45 225 9 55 18 102 20 105 1 3 6 30 9 60 4 30 9 71 11
90 3 19 8 58 11 85 3 28 7 64 9 80 20 166 27 693 12 870 -5 50 -10 110 -12
135 -3 45 -13 123 -20 170 -2 14 -7 52 -11 85 -3 33 -8 62 -9 65 -2 3 -6 26
-10 50 -6 43 -39 204 -69 340 -50 231 -192 645 -306 895 -159 350 -424 794
-612 1025 -15 19 -51 64 -79 100 -367 466 -903 923 -1450 1238 -258 148 -688
344 -874 398 -33 9 -67 21 -75 25 -14 9 -119 40 -265 81 -97 26 -355 83 -445
98 -41 7 -84 14 -95 16 -11 2 -38 6 -60 9 -22 3 -74 9 -115 15 -79 10 -144 17
-250 26 -66 6 -637 14 -642 9z m632 -309 c119 -11 168 -16 203 -21 17 -2 68
-9 112 -15 44 -6 92 -13 108 -15 43 -8 69 -12 112 -20 57 -10 318 -71 400 -94
352 -96 762 -268 1105 -464 96 -55 398 -249 438 -282 9 -8 71 -56 137 -106 66
-51 125 -97 131 -103 6 -6 50 -45 97 -86 121 -105 345 -333 466 -473 406 -475
712 -1009 912 -1597 35 -103 105 -334 114 -378 2 -9 9 -39 15 -67 6 -27 14
-61 16 -75 3 -14 11 -52 18 -85 8 -33 17 -82 22 -110 4 -27 9 -57 11 -65 3
-15 7 -45 18 -125 10 -75 15 -120 20 -180 3 -33 8 -80 10 -105 2 -25 7 -134
11 -242 l6 -198 -4852 0 -4852 0 6 188 c3 103 8 214 11 247 9 109 16 183 19
202 2 10 7 45 11 78 17 143 68 408 110 575 137 538 403 1108 742 1588 43 61
220 290 233 302 3 3 32 37 65 75 70 83 385 398 470 472 33 28 101 83 150 123
50 39 100 80 113 91 13 11 36 28 50 37 15 9 65 44 112 77 384 273 945 543
1385 666 111 31 258 69 287 74 14 3 53 12 85 19 32 8 74 17 93 20 19 3 87 14
150 25 135 22 224 33 410 46 52 4 96 8 98 9 5 6 553 -1 622 -8z"/>
</g>
</svg>
